<svg width="1054" height="1108" fill="none" xmlns="http://www.w3.org/2000/svg"><g filter="url(#filter0_d_218:280)"><path d="M564.376 903.973c37.943-16.762 63.987-55.683 79.124-81.344 5.275-2.747 32.074-26.151 42.202-31.425 12.661-6.592 70.697-57.397 91.975-91.87 21.278-34.473 45.978-120.325-.083-233.9-36.849-90.86-117.999-172.136-156.898-202.413-8.804-7.893-44.865-29.747-61.156-35.161-24.301-8.074-46.698-10.111-69.931-6.436-23.232 3.675-68.596 17.002-94.709 30.598-26.113 13.597-42.322 21.101-66.518 38.379-24.196 17.277-46.859 37.499-67.296 67.792-20.437 30.292-30.637 58.997-36.472 84.494-5.835 25.496-6.613 54.91-1.926 87.093 4.688 32.183 26.301 62.103 37.516 75.915 11.215 13.812 29.119 26.948 39.617 35.518 10.497 8.571 28.018 20.971 42.373 35.019 14.356 14.048 25.905 32.365 36.514 62.4 10.61 30.035 9.881 55.68 14.692 78.441 4.81 22.761 17.15 40.666 28.749 55.214 11.598 14.548 32.593 31.689 50.979 38.024 18.386 6.335 43.819 14.614 91.248-6.338z" fill="#EDBA4B"/></g><defs><filter id="filter0_d_218:280" x="0" y="0" width="1053.23" height="1107.24" filterUnits="userSpaceOnUse" color-interpolation-filters="sRGB"><feFlood flood-opacity="0" result="BackgroundImageFix"/><feColorMatrix in="SourceAlpha" values="0 0 0 0 0 0 0 0 0 0 0 0 0 0 0 0 0 0 127 0" result="hardAlpha"/><feOffset/><feGaussianBlur stdDeviation="70"/><feColorMatrix values="0 0 0 0 0.929412 0 0 0 0 0.729412 0 0 0 0 0.294118 0 0 0 0.3 0"/><feBlend in2="BackgroundImageFix" result="effect1_dropShadow_218:280"/><feBlend in="SourceGraphic" in2="effect1_dropShadow_218:280" result="shape"/></filter></defs></svg>