<svg width="1054" height="1108" viewBox="0 0 1054 1108" fill="none" xmlns="http://www.w3.org/2000/svg">
<g filter="url(#filter0_d_218:280)">
<path d="M564.376 903.973C602.319 887.211 628.363 848.29 643.5 822.629C648.775 819.882 675.574 796.478 685.702 791.204C698.363 784.612 756.399 733.807 777.677 699.334C798.955 664.861 823.655 579.009 777.594 465.434C740.745 374.574 659.595 293.298 620.696 263.021C611.892 255.128 575.831 233.274 559.54 227.86C535.239 219.786 512.842 217.749 489.609 221.424C466.377 225.099 421.013 238.426 394.9 252.022C368.787 265.619 352.578 273.123 328.382 290.401C304.186 307.678 281.523 327.9 261.086 358.193C240.649 388.485 230.449 417.19 224.614 442.687C218.779 468.183 218.001 497.597 222.688 529.78C227.376 561.963 248.989 591.883 260.204 605.695C271.419 619.507 289.323 632.643 299.821 641.213C310.318 649.784 327.839 662.184 342.194 676.232C356.55 690.28 368.099 708.597 378.708 738.632C389.318 768.667 388.589 794.312 393.4 817.073C398.21 839.834 410.55 857.739 422.149 872.287C433.747 886.835 454.742 903.976 473.128 910.311C491.514 916.646 516.947 924.925 564.376 903.973Z" fill="#EDBA4B"/>
</g>
<defs>
<filter id="filter0_d_218:280" x="0" y="0" width="1053.23" height="1107.24" filterUnits="userSpaceOnUse" color-interpolation-filters="sRGB">
<feFlood flood-opacity="0" result="BackgroundImageFix"/>
<feColorMatrix in="SourceAlpha" type="matrix" values="0 0 0 0 0 0 0 0 0 0 0 0 0 0 0 0 0 0 127 0" result="hardAlpha"/>
<feOffset/>
<feGaussianBlur stdDeviation="70"/>
<feColorMatrix type="matrix" values="0 0 0 0 0.929412 0 0 0 0 0.729412 0 0 0 0 0.294118 0 0 0 0.3 0"/>
<feBlend mode="normal" in2="BackgroundImageFix" result="effect1_dropShadow_218:280"/>
<feBlend mode="normal" in="SourceGraphic" in2="effect1_dropShadow_218:280" result="shape"/>
</filter>
</defs>
</svg>
