<?xml version="1.0" encoding="utf-8"?><svg viewBox="0 0 30 31" xmlns="http://www.w3.org/2000/svg" xmlns:xlink="http://www.w3.org/1999/xlink"><style>:root>svg{display:none}:root>svg:target{display:block}</style><svg fill="none" viewBox="0 0 28 13" id="adv-elipse" xmlns="http://www.w3.org/2000/svg"><path fill-rule="evenodd" clip-rule="evenodd" d="M.035 0C.548 7.265 6.605 13 14 13c7.396 0 13.452-5.735 13.965-13H23.95C23.449 5.053 19.185 9 14 9 8.815 9 4.551 5.053 4.05 0H.034z" fill="url(#apaint0_linear_1045:538)"/><defs><linearGradient id="apaint0_linear_1045:538" x1="27.965" y1="13" x2=".035" y2="13" gradientUnits="userSpaceOnUse"><stop stop-color="#EBB949"/><stop offset="1" stop-color="#FECA56"/></linearGradient></defs></svg><svg fill="none" viewBox="0 0 23 14" id="arrow-down" xmlns="http://www.w3.org/2000/svg"><path d="M11.457 11.208L1.504 1.256A.881.881 0 00.258 2.502l10.576 10.575a.881.881 0 001.246 0L22.655 2.502a.881.881 0 00-1.246-1.246l-9.952 9.952z" fill="#474132"/></svg><svg fill="none" viewBox="0 0 14 24" id="arrow-left" xmlns="http://www.w3.org/2000/svg"><path d="M3.077 12.002L13.03 2.05A.881.881 0 0011.784.803L1.208 11.38a.881.881 0 000 1.246l10.576 10.576a.881.881 0 001.246-1.246l-9.953-9.953z" fill="currentColor"/></svg><svg fill="none" viewBox="0 0 14 24" id="arrow-right" xmlns="http://www.w3.org/2000/svg"><path d="M10.92 11.995L.967 21.948a.881.881 0 001.246 1.246L12.79 12.618a.881.881 0 000-1.246L2.213.795A.881.881 0 00.967 2.041l9.953 9.954z" fill="currentColor"/></svg><svg fill="none" viewBox="0 0 16 9" id="arrow-up" xmlns="http://www.w3.org/2000/svg"><path d="M1.016 8.501c.152.158.4.168.564.029h.003l.027-.028 6.604-6.604 6.604 6.604h0l.001.002a.414.414 0 00.585-.01h0a.414.414 0 000-.575h0l-.001-.001L8.506 1.02h0a.414.414 0 00-.585 0h0L1.025 7.917a.414.414 0 00-.01.584h0z" fill="#474132" stroke="#474132" stroke-width=".2"/></svg><svg fill="none" viewBox="0 0 30 31" id="insta-icon" xmlns="http://www.w3.org/2000/svg"><path d="M1.957 2.083C-.393 4.525.087 7.12.087 14.998c0 6.544-1.141 13.104 4.834 14.648 1.866.48 18.398.48 20.262-.002 2.487-.642 4.512-2.66 4.788-6.179.039-.49.039-16.434-.001-16.935-.294-3.748-2.601-5.908-5.641-6.345-.697-.101-.837-.13-4.411-.137C7.238.054 4.458-.511 1.957 2.083z" fill="url(#finsta)"/><path d="M15.04 3.96c-4.525 0-8.823-.402-10.464 3.81-.678 1.74-.58 4-.58 7.236 0 2.84-.09 5.508.58 7.234 1.638 4.216 5.97 3.812 10.462 3.812 4.334 0 8.802.45 10.464-3.812.679-1.757.58-3.983.58-7.234 0-4.315.237-7.1-1.855-9.192-2.12-2.12-4.985-1.854-9.191-1.854h.005zm-.989 1.99c9.44-.014 10.642-1.064 9.979 13.516-.236 5.156-4.162 4.59-8.988 4.59-8.8 0-9.053-.252-9.053-9.055 0-8.906.698-9.045 8.062-9.053v.003zm6.885 1.834a1.325 1.325 0 100 2.65 1.325 1.325 0 000-2.65zm-5.895 1.55a5.672 5.672 0 000 11.343 5.67 5.67 0 005.67-5.671 5.671 5.671 0 00-5.67-5.672zm0 1.99c4.867 0 4.873 7.364 0 7.364-4.866 0-4.874-7.364 0-7.364z" fill="#fff"/><defs><linearGradient id="finsta" x1="30" y1="30.006" x2="0" y2="30.006" gradientUnits="userSpaceOnUse"><stop stop-color="#EBB949"/><stop offset="1" stop-color="#FECA56"/></linearGradient></defs></svg><svg fill="none" viewBox="0 0 14 2" id="minus" xmlns="http://www.w3.org/2000/svg"><rect width="14" height="2" rx="1" fill="#474132"/></svg><svg fill="none" viewBox="0 0 19 19" id="phone-icon" xmlns="http://www.w3.org/2000/svg"><path d="M17.475 12.471c-1.163 0-2.305-.182-3.387-.54-.53-.18-1.183-.014-1.506.318l-2.137 1.613c-2.477-1.323-4.003-2.848-5.308-5.307l1.565-2.08c.407-.407.553-1 .378-1.557a10.804 10.804 0 01-.542-3.393C6.538.684 5.855 0 5.014 0h-3.49C.685 0 0 .684 0 1.525 0 11.16 7.84 19 17.475 19c.841 0 1.525-.684 1.525-1.525v-3.48c0-.84-.684-1.524-1.525-1.524z" fill="#C8C2B5"/></svg><svg fill="none" viewBox="0 0 14 13" id="plus" xmlns="http://www.w3.org/2000/svg"><rect y="6" width="14" height="2" rx="1" fill="#474132"/><rect x="8" width="13" height="2" rx="1" transform="rotate(90 8 0)" fill="#474132"/></svg></svg>