<svg width="30" height="31" viewBox="0 0 30 31" fill="none" xmlns="http://www.w3.org/2000/svg">
<path d="M1.95689 2.08325C-0.393836 4.52496 0.0872779 7.11874 0.0872779 14.9985C0.0872779 21.5422 -1.05443 28.102 4.92085 29.6463C6.78672 30.1262 23.3191 30.1262 25.1825 29.6438C27.6703 29.0019 29.6945 26.984 29.9712 23.4654C30.0098 22.9743 30.0098 7.03149 29.9699 6.53043C29.6758 2.78248 27.3687 0.622458 24.3287 0.184968C23.6319 0.0840091 23.4923 0.0540953 19.9176 0.0478633C7.23792 0.0540953 4.45843 -0.510528 1.95689 2.08325Z" fill="url(#insta)"/>
<path d="M15.0406 3.96031C10.5149 3.96031 6.2173 3.55772 4.57578 7.77058C3.89773 9.51056 3.9962 11.7703 3.9962 15.006C3.9962 17.8453 3.90521 20.5139 4.57578 22.2401C6.21356 26.4555 10.5461 26.0517 15.0381 26.0517C19.3719 26.0517 23.8403 26.5028 25.5017 22.2401C26.181 20.4827 26.0813 18.2566 26.0813 15.006C26.0813 10.6909 26.3194 7.90519 24.2267 5.81371C22.1078 3.69482 19.2423 3.96031 15.0356 3.96031H15.0406ZM14.051 5.95082C23.4913 5.93586 24.6928 4.88639 24.0297 19.4656C23.7941 24.622 19.868 24.0561 15.0419 24.0561C6.24223 24.0561 5.98921 23.8044 5.98921 15.001C5.98921 6.0954 6.68719 5.95581 14.051 5.94833V5.95082ZM20.9361 7.78429C20.2045 7.78429 19.6112 8.37758 19.6112 9.10922C19.6112 9.84086 20.2045 10.4342 20.9361 10.4342C21.6678 10.4342 22.2611 9.84086 22.2611 9.10922C22.2611 8.37758 21.6678 7.78429 20.9361 7.78429ZM15.0406 9.33357C11.9084 9.33357 9.36947 11.8738 9.36947 15.006C9.36947 18.1382 11.9084 20.6771 15.0406 20.6771C18.1728 20.6771 20.7105 18.1382 20.7105 15.006C20.7105 11.8738 18.1728 9.33357 15.0406 9.33357ZM15.0406 11.3241C19.9078 11.3241 19.9141 18.6879 15.0406 18.6879C10.1746 18.6879 10.1672 11.3241 15.0406 11.3241Z" fill="white"/>
<defs>
<linearGradient id="insta" x1="30" y1="30.0059" x2="-8.90078e-07" y2="30.0059" gradientUnits="userSpaceOnUse">
<stop stop-color="#EBB949"/>
<stop offset="1" stop-color="#FECA56"/>
</linearGradient>
</defs>
</svg>
