<svg width="19" height="19" viewBox="0 0 19 19" fill="none" xmlns="http://www.w3.org/2000/svg">
<path d="M17.4754 12.4714C16.3122 12.4714 15.17 12.2894 14.0877 11.9317C13.5573 11.7508 12.9053 11.9168 12.5816 12.2492L10.4453 13.862C7.96768 12.5394 6.44154 11.0138 5.13708 8.55483L6.70235 6.47413C7.10902 6.06801 7.25488 5.47475 7.08012 4.91811C6.7209 3.83006 6.53842 2.68843 6.53842 1.52468C6.53847 0.683981 5.85452 3.05176e-05 5.01387 3.05176e-05H1.5246C0.683951 3.05176e-05 0 0.683981 0 1.52463C0 11.1607 7.83938 19 17.4754 19C18.3161 19 19 18.3161 19 17.4754V13.9959C19 13.1553 18.316 12.4714 17.4754 12.4714Z" fill="#C8C2B5"/>
</svg>
