<svg width="16" height="9" viewBox="0 0 16 9" fill="none" xmlns="http://www.w3.org/2000/svg">
<path d="M1.01588 8.50113C1.1681 8.65871 1.41519 8.66927 1.58006 8.5298L1.58277 8.52967L1.6101 8.50233L8.21403 1.8978L14.8179 8.50233L14.8179 8.50234L14.8192 8.50355C14.9834 8.66222 15.2452 8.65763 15.4039 8.4934L15.4039 8.49339C15.5586 8.33315 15.5586 8.07913 15.4039 7.91891L15.4039 7.9189L15.4026 7.91767L8.50606 1.02109L8.50606 1.02108C8.3446 0.859662 8.08287 0.859674 7.92139 1.02107L7.92137 1.02109L1.02535 7.91711C0.861771 8.07584 0.857472 8.33707 1.01586 8.50111L1.01588 8.50113Z" fill="#474132" stroke="#474132" stroke-width="0.2"/>
</svg>
