<svg width="58" height="58" fill="none" xmlns="http://www.w3.org/2000/svg"><circle cx="29" cy="29" r="29" fill="#fff"/><path d="M42.083 23.327a.602.602 0 00-.502-.167h-7.196v-3.18a5.69 5.69 0 00-11.38 0v3.18h-7.197c-.201 0-.402 0-.502.167a.569.569 0 00-.168.502l2.51 13.724a4.084 4.084 0 003.95 3.347h14.193a4.117 4.117 0 003.95-3.38l2.51-13.69a.569.569 0 00-.168-.503zm-17.74-3.347a4.351 4.351 0 018.703 0v3.18h-8.703v-3.18zm14.058 17.372a2.678 2.678 0 01-2.61 2.21H21.598a2.678 2.678 0 01-2.61-2.21L16.61 24.499h24.167L38.4 37.352z" fill="#474132"/><circle cx="36.986" cy="38.378" r="4.543" fill="url(#gradient2)" stroke="#F8F3E6"/><defs><linearGradient id="gradient2" x1="42.029" y1="43.422" x2="31.942" y2="43.422" gradientUnits="userSpaceOnUse"><stop stop-color="#EBB949"/><stop offset="1" stop-color="#FECA56"/></linearGradient></defs></svg>