<svg width="22" height="22" fill="none" xmlns="http://www.w3.org/2000/svg"><path d="M1.381 1.47C-.278 3.195.061 5.026.061 10.589c0 4.62-.805 9.25 3.413 10.34 1.317.34 12.988.34 14.304 0 1.756-.454 3.185-1.879 3.38-4.363.027-.346.027-11.601 0-11.955C20.95 1.964 19.32.44 17.174.13c-.492-.07-.59-.092-3.114-.096C5.11.038 3.147-.36 1.38 1.47z" fill="url(#paint0_linear_218:302)"/><path d="M10.619 2.796c-3.195 0-6.23-.284-7.388 2.69-.479 1.228-.41 2.823-.41 5.108 0 2.004-.063 3.888.41 5.107 1.156 2.975 4.215 2.69 7.386 2.69 3.06 0 6.214.319 7.387-2.69.48-1.241.409-2.813.409-5.107 0-3.047.168-5.013-1.31-6.49-1.495-1.496-3.518-1.308-6.488-1.308h.004zM9.92 4.2c6.664-.01 7.513-.751 7.045 9.54-.167 3.641-2.938 3.242-6.345 3.242-6.213 0-6.391-.178-6.391-6.393 0-6.287.493-6.385 5.691-6.39V4.2zm4.86 1.294a.935.935 0 100 1.871.935.935 0 000-1.87zM10.62 6.59a4.004 4.004 0 10.001 8.009 4.004 4.004 0 00-.001-8.009zm0 1.405c3.436 0 3.44 5.199 0 5.199-3.435 0-3.44-5.199 0-5.199z" fill="#fff"/><defs><linearGradient id="paint0_linear_218:302" x1="1.422" y1="19.803" x2="21.049" y2="2.816" gradientUnits="userSpaceOnUse"><stop stop-color="#FD5"/><stop offset=".5" stop-color="#FF543E"/><stop offset="1" stop-color="#C837AB"/></linearGradient></defs></svg>